HIERARCHY
ROOT Hips
{
	OFFSET -3.958830 18.904000 13.208200
	CHANNELS 6 Xposition Yposition Zposition Zrotation Yrotation Xrotation 
	JOINT LHipJoint
	{
		OFFSET 0.000000 0.000000 0.000000
		CHANNELS 3 Zrotation Yrotation Xrotation
		JOINT LeftUpLeg
		{
			OFFSET 1.800000 -1.400000 0.085000
			CHANNELS 3 Zrotation Yrotation Xrotation
			JOINT LeftLeg
			{
				OFFSET 2.215000 -6.000000 0.000000
				CHANNELS 3 Zrotation Yrotation Xrotation
				JOINT LeftFoot
				{
					OFFSET 2.500000 -6.900000 0.000000
					CHANNELS 3 Zrotation Yrotation Xrotation
					JOINT LeftToeBase
					{
						OFFSET 0.200000 -0.500000 1.950000
						CHANNELS 3 Zrotation Yrotation Xrotation
						End Site
						{
							OFFSET 0.000000 0.000000 0.000000
						}
					}
				}
			}
		}
	}
	JOINT RHipJoint
	{
		OFFSET 0.000000 0.000000 0.000000
		CHANNELS 3 Zrotation Yrotation Xrotation
		JOINT RightUpLeg
		{
			OFFSET -1.800000 -1.400000 0.085000
			CHANNELS 3 Zrotation Yrotation Xrotation
			JOINT RightLeg
			{
				OFFSET -2.215000 -6.000000 0.000000
				CHANNELS 3 Zrotation Yrotation Xrotation
				JOINT RightFoot
				{
					OFFSET -2.500000 -6.900000 0.000000
					CHANNELS 3 Zrotation Yrotation Xrotation
					JOINT RightToeBase
					{
						OFFSET -0.200000 -0.500000 1.950000
						CHANNELS 3 Zrotation Yrotation Xrotation
						End Site
						{
							OFFSET 0.000000 0.000000 0.000000
						}
					}
				}
			}
		}
	}
	JOINT LowerBack
	{
		OFFSET 0.000000 0.000000 0.000000
		CHANNELS 3 Zrotation Yrotation Xrotation
		JOINT Spine
		{
			OFFSET -0.087000 1.940000 -0.288900
			CHANNELS 3 Zrotation Yrotation Xrotation
			JOINT Spine1
			{
				OFFSET 0.000000 1.950000 0.060000
				CHANNELS 3 Zrotation Yrotation Xrotation
				JOINT Neck
				{
					OFFSET 0.000000 0.000000 0.000000
					CHANNELS 3 Zrotation Yrotation Xrotation
					JOINT Neck1
					{
						OFFSET 0.000000 1.600000 0.340000
						CHANNELS 3 Zrotation Yrotation Xrotation
						JOINT Head
						{
							OFFSET 0.000000 1.667000 -0.240000
							CHANNELS 3 Zrotation Yrotation Xrotation
							End Site
							{
								OFFSET 0.000000 0.000000 0.000000
							}
						}
					}
				}
				JOINT LeftShoulder
				{
					OFFSET 0.000000 0.000000 0.000000
					CHANNELS 3 Zrotation Yrotation Xrotation
					JOINT LeftArm
					{
						OFFSET 2.700000 1.550000 -0.730000
						CHANNELS 3 Zrotation Yrotation Xrotation
						JOINT LeftForeArm
						{
							OFFSET 5.450000 0.000000 0.000000
							CHANNELS 3 Zrotation Yrotation Xrotation
							JOINT LeftHand
							{
								OFFSET 3.450000 0.000000 0.000000
								CHANNELS 3 Zrotation Yrotation Xrotation
								JOINT LeftHandIndex1
								{
									OFFSET 0.750000 0.000000 0.000000
									CHANNELS 3 Zrotation Yrotation Xrotation
									End Site
									{
										OFFSET 0.000000 0.000000 0.000000
									}
								}
							}
						}
					}
				}
				JOINT RightShoulder
				{
					OFFSET 0.000000 0.000000 0.000000
					CHANNELS 3 Zrotation Yrotation Xrotation
					JOINT RightArm
					{
						OFFSET -2.700000 1.550000 -0.730000
						CHANNELS 3 Zrotation Yrotation Xrotation
						JOINT RightForeArm
						{
							OFFSET -5.450000 0.000000 0.000000
							CHANNELS 3 Zrotation Yrotation Xrotation
							JOINT RightHand
							{
								OFFSET -3.450000 0.000000 0.000000
								CHANNELS 3 Zrotation Yrotation Xrotation
								JOINT RightHandIndex1
								{
									OFFSET -0.750000 0.000000 0.000000
									CHANNELS 3 Zrotation Yrotation Xrotation
									End Site
									{
										OFFSET 0.000000 0.000000 0.000000
									}
								}
							}
						}
					}
				}
			}
		}
	}
}
MOTION
Frames: 4
Frame Time: 0.016667
-0.109820 16.453740 -1.675600 -4.833552 15.512177 -7.934143 -15.555846 12.973239 3.968903 17.274157 -2.890845 -33.122020 -0.194403 11.515402 47.110591 -0.130592 9.187575 1.317891 0.440130 -0.095720 0.236570 17.863503 -10.391704 2.532234 -20.686284 3.739721 -16.981037 15.465212 -14.872360 39.048149 -0.873057 -7.625201 1.896267 0.069460 0.458410 0.174180 -2.704797 -2.477045 -8.483019 -1.823273 8.095900 24.945055 7.730831 8.212082 15.351295 -5.224492 -4.278256 -15.652809 -15.787306 1.929533 54.377046 7.268430 -5.103380 -3.866450 -6.523739 -26.948538 4.622190 -3.885174 -27.972600 -1.841300 113.676860 -51.207185 -78.749147 -3.744291 2.164978 0.754000 0.166380 -0.178100 0.275450 18.204547 32.843228 13.259899 35.877302 19.226871 -0.831142 7.680689 20.157225 0.695499 1.740892 -1.208214 -0.383140 0.429670 0.117140 -0.307160 
-0.102050 16.447660 -1.682540 -4.797163 15.562009 -8.112963 -15.582219 13.020458 3.986165 17.238080 -2.911665 -33.129534 -0.212751 11.593514 47.347578 -0.142915 9.254088 1.292053 0.435160 -0.115540 0.249830 17.833299 -10.358834 2.517274 -20.836353 3.770617 -16.745181 15.453812 -14.854349 39.057613 -0.869176 -7.619860 1.895013 0.067540 0.454840 0.167010 -2.622248 -2.622646 -8.483347 -2.256298 8.409270 25.410796 8.302690 8.435859 15.585147 -5.320902 -4.446047 -15.903523 -16.214770 2.050609 54.234954 7.352380 -5.070410 -4.189480 -6.939309 -27.445053 4.440293 -3.616915 -28.434299 -2.017767 113.686132 -50.666034 -78.128180 -3.750661 2.150117 0.774370 0.160200 -0.180600 0.263140 18.912331 33.400135 13.694048 35.156525 18.888379 -1.187115 7.121920 19.901886 0.623238 1.725013 -1.198398 -0.402160 0.439790 0.126720 -0.324010 
-0.087310 16.442340 -1.696270 -4.724065 15.607832 -8.411208 -15.613983 13.089664 3.981299 16.993181 -2.932961 -33.084934 -0.023769 11.563433 47.637229 -0.179069 9.298679 1.262282 0.442940 -0.119140 0.281280 17.796890 -10.318520 2.505839 -21.094098 3.859594 -16.459661 15.487825 -14.851848 39.139763 -0.878932 -7.617002 1.879772 0.078550 0.439300 0.158900 -2.522061 -2.802623 -8.462637 -2.874829 8.922059 26.060078 8.978506 8.831562 16.064758 -5.408920 -4.628842 -16.115025 -16.758255 2.287713 54.428469 7.714780 -4.936650 -5.606560 -7.070002 -27.962719 4.170645 -3.861718 -29.345187 -2.193721 113.289983 -49.987845 -77.128205 -3.751523 2.111112 0.815700 0.139600 -0.165780 0.241840 19.296850 34.134452 14.058174 34.463707 19.218138 -1.125672 6.518970 18.686567 0.554682 1.723661 -1.153582 -0.425380 0.463990 0.138530 -0.347900 
-0.067580 16.430900 -1.707090 -4.691411 15.653309 -8.414290 -15.644450 13.099266 4.002356 16.799160 -3.016942 -33.354915 0.116787 11.616278 48.094910 -0.205301 9.385881 1.219102 0.442470 -0.127860 0.301970 17.774290 -10.258550 2.506726 -21.407180 3.951827 -16.552968 15.608997 -14.955139 39.365096 -0.886413 -7.656864 1.848881 0.087610 0.429790 0.154000 -2.438374 -2.927148 -8.458941 -3.478919 9.423023 26.338609 9.596392 9.162652 16.385533 -5.549901 -4.710537 -16.149227 -16.969076 2.245211 54.216535 7.673420 -4.789000 -6.651470 -7.134847 -28.297998 3.808497 -4.003636 -30.383656 -2.190594 112.729588 -49.789991 -76.354068 -3.759485 2.071008 0.842550 0.130390 -0.161190 0.219640 19.701104 34.570933 14.324962 34.340101 19.458585 -1.211813 5.708335 18.074076 0.440479 1.716521 -1.131217 -0.446500 0.479370 0.154080 -0.368330 
